<?xml version="1.0" encoding="UTF-8"?>
<svg id="Capa_2" data-name="Capa 2" xmlns="http://www.w3.org/2000/svg" viewBox="0 0 245.76 245.76">
  <defs>
    <style>
      .cls-1 {
        fill: #ae285f;
      }

      .cls-1, .cls-2, .cls-3, .cls-4, .cls-5, .cls-6, .cls-7, .cls-8, .cls-9, .cls-10, .cls-11, .cls-12, .cls-13 {
        stroke-width: 0px;
      }

      .cls-2 {
        fill: #e4347d;
      }

      .cls-3 {
        fill: #e9347d;
      }

      .cls-4 {
        fill: #fdfcfc;
      }

      .cls-5 {
        fill: #e8337d;
      }

      .cls-6 {
        fill: #e72f7c;
      }

      .cls-7 {
        fill: #e6317c;
      }

      .cls-8 {
        fill: #e7337d;
      }

      .cls-9 {
        fill: #e7307c;
      }

      .cls-10 {
        fill: #e8327d;
      }

      .cls-11 {
        fill: #ea337c;
      }

      .cls-12 {
        fill: #fdfdfd;
      }

      .cls-13 {
        fill: #e6327c;
      }
    </style>
  </defs>
  <g id="Capa_1-2" data-name="Capa 1">
    <g>
      <path class="cls-12" d="M245.74,123c0,40.55,0,81.11.02,121.66,0,.9-.2,1.1-1.1,1.1-81.19-.02-162.37-.02-243.56,0-.9,0-1.1-.2-1.1-1.1C.02,163.47.02,82.29,0,1.1,0,.2.2,0,1.1,0c81.19.02,162.37.02,243.56,0,.9,0,1.1.2,1.1,1.1-.03,40.63-.02,81.27-.02,121.9Z"/>
      <path class="cls-13" d="M130.32,118.97c-2.45-1.16-4.94-2.06-7.62-2.33-1.57-.16-3.1-.11-4.56.55-.9.41-1.34,1.13-1.34,2.08,0,.94.42,1.64,1.31,2.1,2.45,1.28,5.2,1.68,7.77,2.6,2.47.89,4.7,2.1,6.21,4.37,1.93,2.9,1.53,8.48-.71,11.13-2.45,2.89-5.65,4.08-9.3,4.34-4.84.35-9.41-.55-13.72-2.81-.93-.49-1.28-.94-.83-2.01.73-1.75,1.29-3.57,1.97-5.47,1.59.98,3.22,1.9,5.02,2.5,2.47.83,4.97,1.05,7.54.66,1.33-.2,2.39-1.18,2.58-2.4.15-.92-.65-2.23-1.69-2.78-1.78-.93-3.77-1.21-5.66-1.77-2.16-.65-4.3-1.28-6.12-2.76-1.22-1-2.12-2.18-2.52-3.64-1.74-6.36.78-11.56,7.51-13.2,4.89-1.19,9.81-.77,14.48,1.35,1.85.84,1.83.85,1.19,2.8-.5,1.54-.98,3.09-1.49,4.7Z"/>
      <path class="cls-8" d="M80.08,91.64c1.76-.02,3.51-.02,5.27-.06.57-.01.81.18.74.75-.03.24,0,.48,0,.72,0,16.25,0,32.5.03,48.75,0,1.06-.22,1.42-1.35,1.37-2.23-.1-4.47-.03-6.71-.03-.44,0-.86.07-.86-.63-.03-5.31-.09-10.62-.14-15.92.11-1.31.04-2.63.04-3.94,0-9.81,0-19.62,0-29.43,0-1.7-.2-1.48,1.55-1.51.48,0,.96.08,1.42-.08Z"/>
      <path class="cls-5" d="M102.33,128.11c0,5.47.07,10.94-.03,16.41-.05,2.83-.54,5.59-2.49,7.91-1.18,1.4-2.65,2.27-4.33,2.78-3.26.98-6.52.78-9.75-.24-.65-.21-.82-.42-.67-1.17.37-1.87.9-3.71,1.02-5.63.05-.8.61-.49.95-.37,1.09.36,2.19.41,3.31.29,1.8-.19,2.53-.92,2.7-2.74.28-2.99.22-5.98.23-8.98.02-8.31.02-16.61-.01-24.92,0-.92.2-1.22,1.16-1.19,2.31.08,4.63.07,6.95,0,.87-.02,1.04.26,1.04,1.07-.04,5.59-.02,11.18-.02,16.77h-.06Z"/>
      <path class="cls-7" d="M74.46,137.94c.33,2.2.38,2.34-1.52,2.95-6.58,2.12-12.93,1.73-18.95-1.92-3.57-2.16-6.35-5.08-8.15-8.8-2.91-6.03-3.29-12.21-.56-18.46,2.29-5.26,6.03-9.11,11.27-11.43,5.57-2.48,11.25-2.58,16.99-.5,1.18.43,1.11,1.32,1.04,2.24-.05.65-.48.36-.78.21-2.26-1.09-4.69-1.62-7.16-1.74-5.44-.26-10.23,1.38-14.36,5.04-4.28,3.79-6.43,8.53-6.68,14.16-.36,8.21,4.92,16.01,12.54,18.96,4.76,1.84,9.49,1.76,14.26.22.7-.23,1.36-.6,2.06-.91Z"/>
      <path class="cls-10" d="M72.96,120.19c.32,4.39-3.5,7.69-7.39,7.63-4.55-.08-7.8-3.2-7.78-7.68.02-4.22,3.52-7.67,7.76-7.56,4.13.1,7.67,3.15,7.41,7.62Z"/>
      <path class="cls-6" d="M74.47,134.71c.29,2.33.14,2.52-1.86,3.25-5.23,1.93-10.45,1.91-15.43-.57-5.56-2.77-9.21-7.19-10.45-13.44-1.12-5.67.05-10.88,3.6-15.3,5.33-6.63,13.35-9.29,21.98-6.19,2.75.98,2.27.67,2.24,3.21-9.49-4.26-17.72-3.05-23.71,6-3.68,5.56-3.39,12.83,1.07,18.81,2.6,3.5,6.19,5.67,10.51,6.44,4.26.76,8.3.07,12.06-2.22Z"/>
      <path class="cls-9" d="M74.51,131.27c.18,2.45.16,2.49-1.88,3.54-5.34,2.76-12.8,1.78-17.41-2-6.23-5.11-7.55-13.15-4.47-19.49,2.43-5.01,6.55-8.11,12.15-9.01,3.83-.62,7.41.05,10.8,1.99,1.36.77.64,1.87,1,3.19-3.58-2.79-7.37-3.78-11.51-3.14-4.19.65-7.51,2.75-9.74,6.4-3.66,6-2.53,13.38,2.57,18.06,3.73,3.43,11.74,5.48,18.49.47Z"/>
      <path class="cls-3" d="M74.5,141.28c.26,1.03-.11,1.47-1,1.76-6.54,2.09-13,1.86-19.04-1.35-7.24-3.83-11.81-9.88-12.83-18.14-.84-6.83.8-13.02,5.27-18.52,5.94-7.31,16.59-10.74,25.59-7.85.53.17,1.04.42,1.57.54.79.19.59.81.47,1.22-.16.55-.58.13-.86.02-5.83-2.23-11.6-1.99-17.28.5-7.13,3.13-11.56,8.6-13.21,16.13-1.49,6.81.08,13.07,4.32,18.64,5.72,7.52,16.06,10.69,25.06,7.68.64-.21,1.28-.42,1.96-.64Z"/>
      <path class="cls-2" d="M102.86,101.46c0,2.89-2.02,4.78-5.06,4.76-3.26-.02-5.27-1.94-5.24-4.99.03-3.02,2.08-4.86,5.39-4.83,3.04.03,4.92,1.96,4.91,5.06Z"/>
      <path class="cls-11" d="M74.51,128.37c.39,1.59-.63,2.36-1.64,2.97-4.73,2.87-9.59,3.02-14.37.23-3.73-2.17-5.77-5.54-6.27-9.87-1.08-9.36,7.8-17.13,17.63-14,1.63.52,3.1,1.42,4.36,2.61.56.52.28,1.18.32,2.02-3.25-3.19-6.91-4.74-11.34-3.88-2.78.54-5.15,1.86-6.99,4.02-4.15,4.88-3.6,12.41,1.24,16.82,3.33,3.03,11.56,4.87,17.04-.92Z"/>
      <path class="cls-1" d="M80.08,91.64c-.59.37-1.25.19-1.87.17-.8-.03-1.05.28-1.01,1.05.05,1,0,2,0,2.99,0,9.78,0,19.56,0,29.34,0,.47.12.96-.15,1.41-.03-3.83-.07-7.66-.08-11.49-.01-7.46.01-14.93-.02-22.39,0-.86.15-1.25,1.09-1.12.67.09,1.35.04,2.03.05Z"/>
      <path class="cls-4" d="M66.93,120.26c.01.84-.71,1.73-1.43,1.75-.85.02-1.69-.87-1.71-1.79-.01-.8.79-1.6,1.6-1.59.82.01,1.52.76,1.53,1.63Z"/>
    </g>
  </g>
</svg>