<?xml version="1.0" encoding="UTF-8"?>
<svg id="Capa_2" data-name="Capa 2" xmlns="http://www.w3.org/2000/svg" viewBox="0 0 245.76 245.76">
  <defs>
    <style>
      .cls-1 {
        fill: #fefefe;
      }

      .cls-1, .cls-2, .cls-3, .cls-4, .cls-5, .cls-6, .cls-7, .cls-8, .cls-9, .cls-10, .cls-11, .cls-12, .cls-13, .cls-14, .cls-15, .cls-16, .cls-17, .cls-18, .cls-19, .cls-20, .cls-21, .cls-22, .cls-23, .cls-24, .cls-25, .cls-26, .cls-27, .cls-28, .cls-29, .cls-30, .cls-31, .cls-32, .cls-33, .cls-34, .cls-35, .cls-36, .cls-37, .cls-38, .cls-39, .cls-40, .cls-41, .cls-42, .cls-43, .cls-44, .cls-45, .cls-46, .cls-47, .cls-48, .cls-49, .cls-50, .cls-51, .cls-52, .cls-53, .cls-54, .cls-55, .cls-56, .cls-57, .cls-58, .cls-59, .cls-60, .cls-61, .cls-62, .cls-63, .cls-64, .cls-65, .cls-66, .cls-67, .cls-68, .cls-69, .cls-70, .cls-71, .cls-72, .cls-73, .cls-74, .cls-75, .cls-76, .cls-77, .cls-78, .cls-79, .cls-80, .cls-81 {
        stroke-width: 0px;
      }

      .cls-2 {
        fill: #e9367e;
      }

      .cls-3 {
        fill: #e73179;
      }

      .cls-4 {
        fill: #e6307a;
      }

      .cls-5 {
        fill: #e8337e;
      }

      .cls-6 {
        fill: #e7357e;
      }

      .cls-7 {
        fill: #e12a76;
      }

      .cls-8 {
        fill: #e5337c;
      }

      .cls-9 {
        fill: #e92c78;
      }

      .cls-10 {
        fill: #e72f79;
      }

      .cls-11 {
        fill: #e9397c;
      }

      .cls-12 {
        fill: #e72c78;
      }

      .cls-13 {
        fill: #e3317b;
      }

      .cls-14 {
        fill: #e32976;
      }

      .cls-15 {
        fill: #040302;
      }

      .cls-16 {
        fill: #e32c76;
      }

      .cls-17 {
        fill: #e6357c;
      }

      .cls-18 {
        fill: #e42c76;
      }

      .cls-19 {
        fill: #e52e7a;
      }

      .cls-21 {
        fill: #ec347e;
      }

      .cls-22 {
        fill: #e5327b;
      }

      .cls-23 {
        fill: #e12f79;
      }

      .cls-24 {
        fill: #e52f7a;
      }

      .cls-25 {
        fill: #e5377b;
      }

      .cls-26 {
        fill: #eb3780;
      }

      .cls-27 {
        fill: #e9357d;
      }

      .cls-28 {
        fill: #e8357c;
      }

      .cls-29 {
        fill: #e8337d;
      }

      .cls-30 {
        fill: #e7327d;
      }

      .cls-31 {
        fill: #110509;
      }

      .cls-32 {
        fill: #e63077;
      }

      .cls-33 {
        fill: #e6387c;
      }

      .cls-34 {
        fill: #e62f7b;
      }

      .cls-35 {
        fill: #e7357d;
      }

      .cls-36 {
        fill: #e8357b;
      }

      .cls-37 {
        fill: #e8317d;
      }

      .cls-38 {
        fill: #e8377f;
      }

      .cls-39 {
        fill: #e5357c;
      }

      .cls-40 {
        fill: #030102;
      }

      .cls-41 {
        fill: #e52c76;
      }

      .cls-42 {
        fill: #e32f78;
      }

      .cls-43 {
        fill: #e7347d;
      }

      .cls-44 {
        fill: #e62c7a;
      }

      .cls-45 {
        fill: #e5317a;
      }

      .cls-46 {
        fill: #f43086;
      }

      .cls-47 {
        fill: #e7317c;
      }

      .cls-48 {
        fill: #e7337d;
      }

      .cls-49 {
        fill: #e52c79;
      }

      .cls-50 {
        fill: #ea347d;
      }

      .cls-51 {
        fill: #e8347f;
      }

      .cls-52 {
        fill: #ea327c;
      }

      .cls-53 {
        fill: #e8347a;
      }

      .cls-54 {
        fill: #e8327b;
      }

      .cls-55 {
        fill: #e6337b;
      }

      .cls-56 {
        fill: #e42d77;
      }

      .cls-57 {
        fill: #e52b77;
      }

      .cls-58 {
        fill: #e72f7b;
      }

      .cls-59 {
        fill: #e23077;
      }

      .cls-60 {
        fill: #eb357f;
      }

      .cls-61 {
        fill: #e5337d;
      }

      .cls-62 {
        fill: #e4337d;
      }

      .cls-63 {
        fill: #050303;
      }

      .cls-64 {
        fill: #e6357b;
      }

      .cls-65 {
        fill: #e32c75;
      }

      .cls-66 {
        fill: #df3478;
      }

      .cls-67 {
        fill: #e8347e;
      }

      .cls-68 {
        fill: #e2377e;
      }

      .cls-69 {
        fill: #e7367c;
      }

      .cls-70 {
        fill: #e82b7b;
      }

      .cls-71 {
        fill: #e52e79;
      }

      .cls-72 {
        fill: #f4347e;
      }

      .cls-73 {
        fill: #e6347d;
      }

      .cls-74 {
        fill: #e22c74;
      }

      .cls-75 {
        fill: #e42b77;
      }

      .cls-76 {
        fill: #e7327b;
      }

      .cls-77 {
        fill: #e6327c;
      }

      .cls-78 {
        fill: #120709;
      }

      .cls-79 {
        fill: #040202;
      }

      .cls-80 {
        fill: #e9337d;
      }

      .cls-81 {
        fill: #e5307b;
      }
    </style>
  </defs>
  <g id="Capa_1-2" data-name="Capa 1">
    <g>
      <path class="cls-20" d="M.02,245.46C.02,164.01.02,82.55,0,1.1,0,.2.2,0,1.1,0c81.47.02,162.93.02,244.4.02.22.42.11.86.11,1.29,0,80.93,0,161.86,0,242.79,0,1.65.17,1.46-1.47,1.46-80.94,0-161.89,0-242.83,0-.43,0-.87.11-1.29-.11Z"/>
      <path class="cls-1" d="M.02,245.46c81.35,0,162.69,0,244.04.03,1.2,0,1.47-.27,1.47-1.47-.03-81.33-.03-162.66-.03-244,.07.05.25-.12.24.12-.01.32,0,.64,0,.96,0,81.17,0,162.35.02,243.52,0,.9-.2,1.1-1.1,1.1-81.19-.02-162.37-.02-243.56-.04-.35,0-.81.28-1.08-.22Z"/>
      <path class="cls-1" d="M172.24,139.22c-3.91,4.74-9.72,5.97-15.21,3.83-3.01-1.17-4.95-3.52-5.54-6.75-.65-3.61-.23-7.02,2.71-9.62,2.14-1.9,4.78-2.73,7.54-3.21,2.96-.51,5.96-.54,8.95-.47.77.02,1-.17.99-.97-.06-3.35-1.51-4.84-4.85-5.02-3.88-.21-7.49.68-10.83,2.62-.53.31-.72.17-.85-.3-.5-1.79-.93-3.6-1.49-5.37-.28-.89.05-1.19.81-1.58,2.78-1.43,5.71-2.36,8.8-2.74,3.02-.38,6.03-.37,9.02.38,4.86,1.22,7.82,4.52,8.49,9.49.26,1.91.21,3.82.22,5.74.02,5.63,0,11.26.04,16.9,0,.76-.16,1.02-.96.99-2-.06-3.99-.04-5.99,0-.62,0-.98-.03-1.08-.81-.12-1.01-.47-1.99-.76-3.1Z"/>
      <path class="cls-1" d="M196.82,115.54c2.41-4.79,7.13-6.91,11.93-5.67.68.18.88.46.78,1.12-.34,2.28-.66,4.57-.94,6.86-.09.72-.36.71-.99.6-2.59-.44-5.14-.51-7.47,1.07-1.78,1.21-2.71,2.87-2.73,5-.05,5.83-.08,11.66-.06,17.49,0,.86-.16,1.15-1.09,1.12-2.47-.08-4.95-.05-7.43,0-.66.01-.87-.15-.87-.84.02-10.39.03-20.77,0-31.16,0-.81.3-.89.96-.87,1.96.04,3.92.08,5.87-.02.97-.05,1.21.37,1.33,1.16.19,1.29.44,2.57.71,4.13Z"/>
      <path class="cls-30" d="M86.1,139.04c.02,1.11.01,2.22.06,3.33.03.61-.26.72-.79.72-2.46-.01-4.93-.01-7.39.02-.56,0-.78-.15-.77-.73.03-.87,0-1.74-.01-2.62.3-1.41.06-2.83.14-4.24.03-.46-.04-.93.03-1.4-.15,1.66.17,3.34-.19,4.99-.04-.39-.11-.79-.11-1.18-.02-15.01-.03-30.03-.08-45.04,0-1.06.25-1.36,1.32-1.32,2.27.09,4.55.01,6.83.03.32,0,.73-.2.97.22-.13.15-.21.34-.42.4-.2.05-.4.04-.61,0-2.19-.13-4.38-.02-6.57-.05-.64,0-.97.27-.95.93.05,1.83-.12,3.66.1,5.49.27,2.3.12,4.61-.09,6.51-.11-.48-.1-1.26,1-1.59.38-.11.75-.36.95-.69.77-1.28,1.86-2.2,3.09-3,.92-.6,1.01-1.89,1.97-2.49.28-.18.43-.63.88-.39.33.17.41.51.32.83-.13.5.17.93.18,1.41,0,12.91,0,25.82,0,38.73,0,.39-.12.8.13,1.16Z"/>
      <path class="cls-29" d="M93.25,144.7c0-5.51,0-11.02-.01-16.52,0-5.59.02-11.18-.03-16.77,0-.9.22-1.16,1.12-1.13,2.35.06,4.71.04,7.07,0,.66,0,.99.07.99.88-.03,11.14-.02,22.28-.03,33.42,0,.55-.14,1.1-.22,1.65-.62-.03-.48-.54-.52-.89-.06-.51-.04-1.03-.21-1.53-.42-1.26-.85-1.4-1.88-.56-.39.32-.77.43-1.17.05-.34-.32-.28-.58.22-1.13-.59.34-1.22.46-1.91.22,1.06.94,1.58,2.06,1.71,3.37.06.59.41,1.01.76,1.45.51.66.31,1.26-.5,1.4-1.04.19-2.09.23-2.79-.82-.53-.8-1.57-.9-2.19-1.62-.42-.48-.63-.88-.42-1.48Z"/>
      <path class="cls-76" d="M119.4,122.04c2.78.85,5.64,1.44,8.31,2.63,4.53,2.02,6.63,6.37,5.34,11-.91-.27-.16-1.36-.73-1.64-.49-.24-1.22.34-1.72-.34-.15-.21-.37-.5-.68-.34-.34.18-.32.62-.19.86.44.82.5,1.86,1.25,2.47.56.45.85.86.36,1.47-.52.65-1.48.76-1.98.19-.56-.63-1.31-1.06-1.86-1.65-.91-.98-1.94-.31-3.06-.59,1.18,1.01,2.39,1.76,2.52,3.3.06.79.49,1.15,1.27,1.29.37.07.9.12,1,.68-.76.44-1.45,1.01-2.3,1.28-.37.16-.59.04-.73-.34-.64-1.73-2.04-2.5-3.75-2.72-1.14-.15-2.1-.73-3.15-1.08-.29-.1-.65-.24-.59-.64.05-.36.41-.41.74-.44.13-.07-.02-.12-.03-.11-.34.25-.68.26-1.07-.16,1.05-.37,2.05.02,2.99-.27.88-.24,1.77-.41,2.44-1.13,1.24-1.33,1.02-3.26-.56-4.16-1.29-.74-2.75-1.06-4.18-1.43-2.12-.56-4.26-1.08-6.21-2.12-1.32-.7-2.49-1.57-3.25-2.9.11-.32.35-.54.61-.72,1.22-.81,2.08-1.93,2.86-3.15.49-.76,2.51-1.51,3.31-1.24.74.24.77.94.83,1.57.04.38-.22.75-.15,1.25.89-.14,1.54-.8,2.39-.81Z"/>
      <path class="cls-37" d="M64.96,129.28c-4.48-.03-7.94-3.51-7.93-7.99.01-4.43,3.64-7.92,8.2-7.88,4.42.04,7.88,3.64,7.8,8.13-.08,4.35-3.63,7.76-8.07,7.74Z"/>
      <path class="cls-8" d="M93.25,144.7c.03,1.08.84,1.59,1.63,1.96.45.21.93.39,1.12.8.57,1.24,1.63.89,2.59.91.3,0,.54-.14.62-.46.08-.29-.13-.42-.33-.57-.64-.46-.73-1.13-.85-1.87-.15-.96-.37-1.98-1.46-2.43-.46-.19-.52-.6-.32-1,.21-.43.47-.23.75,0,.68.56,1.22-.12,1.82-.3.06.35-.22.43-.34.62-.24.38-.2.7.2.9.35.18.65,0,.77-.33.16-.45.31-.88.89-.69.48.16.89.24,1.21.89.49,1.03.06,2.15.6,3.1-.17,5.43-3.91,9.14-9.67,9.54-2.32.16-4.61-.09-6.83-.83-.61-.2-.77-.45-.63-1.12.41-2.02.96-4.02,1.13-6.13.4.08.77.16,1.14.23.2.14-.48.37.11.56.75.25,1.5.39,2.42.52-.47-.2-.95-.01-1.1-.6.7-.32,1.48.07,2.17-.24,1.68-.54,2.14-1.92,2.37-3.46Z"/>
      <path class="cls-22" d="M121.32,136.9c-.81.48-1.72.06-2.6.27.24.37.64.06.91.26-.14.34-.71.03-.78.64,1.28.19,2.32,1.14,3.71,1.21,1.92.1,3.32,1.29,3.93,3.2.03.09.27.12.42.18-3.12,1.46-6.43,1.38-9.72,1.08-3.29-.3-6.34-1.44-9.25-3-.66-.36-.81-.68-.54-1.39.64-1.67,1.21-3.37,1.76-5.07.21-.64.41-.8,1.06-.39,3.38,2.14,7.04,3.3,11.09,3.01Z"/>
      <path class="cls-43" d="M119.4,122.04c-.62.52-1.38.77-2.09,1.12-.19.1-.51.16-.67.07-.22-.13-.1-.43-.03-.65.08-.26.21-.52.26-.79.21-1.14-.24-1.56-1.35-1.44-1.58.16-2.43,1.1-3.15,2.42-.6,1.11-1.79,1.7-2.83,2.38-3-4.26-1.55-10.84,3-13.6.98-.6,2.01-1.13,3.18-1.29.25-.06.76-.14.49.24-.53.77.05,1.07.41,1.5.2.24.44.51.73.6,1.82.58,1.71,2.24,2.08,3.63.05.2-.14.36-.28.5-.26.1-.52.19-.78.3-.9.39-1.53,1-1.62,2.03-.09,1.04.4,1.76,1.26,2.26.45.26.91.48,1.37.72Z"/>
      <path class="cls-1" d="M147.46,138.69c.41,2.47-2.35,5.22-5.02,5.17-2.97-.06-5.47-2.39-5.33-5.29.14-2.98,2.13-4.95,5.18-5.08,2.46-.1,5.55,2.12,5.16,5.19Z"/>
      <path class="cls-62" d="M97.77,96.32c3.04.01,5.2,2.1,5.19,5.04,0,2.95-2.13,4.91-5.29,4.89-3.04-.02-5.12-2.03-5.12-4.95,0-2.94,2.15-4.99,5.22-4.98Z"/>
      <path class="cls-47" d="M119.16,116.73c-.4-1.44,0-3.25-2.01-3.91-.47-.16-.84-.7-1.19-1.12-.33-.4-1.02-.88.07-1.27.1-.04-.18-.12-.29-.17.23-.21.5-.23.79-.21,1.25.64,2.37,1.43,2.83,2.83.15.46.38.55.78.48.94-.15,1.74-.54,2.29-1.34.23-.33.48-.63.71-.95.77-1.04,1.9-.93,2.97-1.01,2,.26,3.83,1.01,5.64,1.84.57.26.62.57.43,1.13-.58,1.74-1.13,3.48-1.62,5.24-.2.71-.47.62-1,.36-3.29-1.59-6.71-2.48-10.4-1.9Z"/>
      <path class="cls-79" d="M73.87,132.14l.26.75c-.04.68-.61.9-1.07,1.19-.77.5-1.61.87-2.45,1.25-3.14,1.22-6.33,1.23-9.56.47-1.67-.58-3.32-1.19-4.74-2.29-1.21-.91-2.29-1.95-3.26-3.11-1.2-1.84-2.28-3.74-2.75-5.92-.48-2.83-.42-5.61.69-8.3.51-1.23,1.1-2.42,1.83-3.53,1.03-1.39,2.26-2.59,3.67-3.59,1.3-.78,2.6-1.55,4.06-2.02,1.89-.39,3.76-.9,5.72-.6.43.12.86.19,1.31.19.19.01.37.05.55.09,1.16.3,2.32.6,3.42,1.11.92.43,1.69,1.12,2.62,1.6.31-.69-.1-1.43.38-2,.52.44.25,1.03.27,1.55.04,1.22.02,2.44,0,3.67,0,.27.16.79-.48.53.29-1.73-.92-2.49-2.11-3.26-.56-.36-1.13-.71-1.78-.89-.87-.42-1.8-.64-2.73-.83-3.45-.62-6.69-.1-9.71,1.72-.37.22-.73.48-1.09.72-1.1.73-2.02,1.64-2.78,2.72-.84,1.11-1.54,2.29-1.92,3.65-.67,2.32-1.03,4.65-.47,7.05.37,2.12,1.34,3.97,2.59,5.69.96,1.09,1.93,2.17,3.22,2.91,1.44.94,3,1.6,4.7,1.92,2.23.55,4.43.35,6.61-.23,1.44-.35,2.74-1,3.96-1.82.3-.2.56-.62,1.03-.35Z"/>
      <path class="cls-15" d="M74.1,99.73l-.24.49c-.1.1-.22.15-.36.18-1.76-.47-3.49-1.03-5.3-1.3-2.64-.39-5.22-.21-7.81.33-3.56.7-6.67,2.34-9.54,4.5-1.07.89-2,1.92-2.97,2.92-.72.87-1.39,1.79-1.96,2.77-4.4,7.43-4.34,15-.72,22.68.7,1.36,1.61,2.58,2.59,3.75.04.11.04.22,0,.33-.27.03-.57-.03-.77.24-.57.09-.73-.41-.97-.72-1.4-1.84-2.47-3.88-3.43-5.98-.3-1.03-.65-2.04-.91-3.08-.79-3.61-.86-7.21-.02-10.82.62-2.14,1.27-4.27,2.44-6.2.76-1.41,1.7-2.7,2.71-3.94.89-.92,1.82-1.81,2.71-2.74,1.03-.83,2.13-1.57,3.24-2.28,3.17-1.89,6.56-3.08,10.25-3.39,1.55,0,3.09,0,4.64,0,.27,0,.54.02.81.08.73.23,1.51.2,2.23.45,1.1.53,2.36.67,3.39,1.38.08.11.08.23,0,.34Z"/>
      <path class="cls-81" d="M55.87,139.81c6.19,2.9,12.38,2.79,18.58-.01.29,2.39.31,2.43-1.83,3.1-6.46,2.02-12.71,1.72-18.69-1.69.69-.4,1.05-1.27,1.94-1.4Z"/>
      <path class="cls-63" d="M57.78,105.29c.02.25-.02.52.26.67.04.54-.43.63-.75.79-.86.44-1.64.99-2.4,1.56-1.09.85-2.03,1.87-2.95,2.9-1.41,1.69-2.22,3.68-2.84,5.76-.74,2.63-.7,5.29-.23,7.95.47,2.62,1.77,4.83,3.36,6.91.85,1.19,1.96,2.1,3.15,2.93,1.29.98,2.73,1.68,4.27,2.19,1.31.46,2.64.83,4.05.79,1.01,0,2.01,0,3.02,0,1.75-.12,3.44-.53,5.03-1.28.96-.31,1.73-1.08,2.79-1.12-.04.84.48,1.62.3,2.49-.07.33.1.72-.28.95-.09-.08-.13-.19-.19-.29-.24-.47.26-1.26-.4-1.44-.49-.14-.98.41-1.48.63-1.37.68-2.82,1.07-4.31,1.38-1.48.22-2.96.48-4.47.24-1.84-.28-3.68-.57-5.4-1.35-1.41-.73-2.86-1.39-4.16-2.31-.94-.91-1.85-1.85-2.79-2.76-1.71-1.98-2.86-4.27-3.65-6.76-.99-4.05-.8-8.03.81-11.9.55-1.4,1.48-2.58,2.35-3.79.85-1.13,1.83-2.13,2.97-2.98,1.17-.93,2.34-1.87,3.83-2.26.05.03.09.07.14.1Z"/>
      <path class="cls-15" d="M49.66,134.2c-.14.17-.28.35-.42.52-1.4-.95-2-2.48-2.82-3.85-3.32-6.69-3.18-13.3.47-19.83.76-1.11,1.4-2.3,2.34-3.28.87-.82,1.68-1.7,2.55-2.52,2.82-2.24,5.97-3.74,9.51-4.43,3.15-.67,6.25-.32,9.31.55.42.12.98.12,1.11.73-.08.16-.16.32-.25.48-.76.44-1.43-.14-2.14-.2-.46-.04-.93-.16-1.39-.26-.36-.12-.74-.17-1.11-.26-1.07-.2-2.14-.19-3.21,0-1.9.34-3.81.67-5.62,1.39-1.89.6-3.49,1.7-5.04,2.87-.98.87-2.14,1.58-2.76,2.81-1.16,1.05-1.98,2.33-2.59,3.75-2.06,4.25-2.66,8.66-1.53,13.27.12.5.26,1.01.32,1.52.51,1.98,1.55,3.7,2.7,5.36.28.41.73.76.58,1.36Z"/>
      <path class="cls-22" d="M129.22,141.39c-.67-.12-1.19-.76-1.98-.49-.28.09-.43-.21-.39-.46.11-.8-.52-1.4-.52-2.18,0-.76-.88-.56-1.22-.96-.28-.33-.18-1.25-1.29-.21.37-.89.42-1.42,1.2-1.18.37.11.79.05,1.17-.12.26-.12.65-.19.79.03.65.99,1.98,1.2,2.51,2.31.15.32.47.58.76.36.36-.27.97-.24,1.11-.8.06-.24-.05-.45-.23-.64-.26-.27-.98.24-.87-.25.27-1.25-1.32-1.92-.85-3.2.11-.29.05-.58.42-.7.37-.12.63.02.8.33.33.59.65.98,1.37.4.49-.4.78-.14.83.46.05.54-.21,1.12.22,1.61-.42,2.48-1.67,4.4-3.83,5.71Z"/>
      <path class="cls-3" d="M53.71,142.18c3.86,1.99,7.96,2.98,12.31,2.82,2.89-.11,5.67-.77,8.4-1.84.34.99.09,1.54-.93,1.86-7.19,2.27-14.12,1.89-20.74-1.9.58-.04.52-.75.96-.94Z"/>
      <path class="cls-55" d="M71.71,102.1c-3.43-1.34-6.96-1.57-10.56-.97-1.07-.24-1.41-.88-1.03-1.92,4.62-1.21,9.11-.76,13.5,1.04-.15.86-.9,1.26-1.42,1.82-.16,0-.32.02-.48.02Z"/>
      <path class="cls-4" d="M68.03,106.96c-.14-.02-.27-.04-.41-.06-.41-.23-.89,0-1.31-.19-1.99-.06-3.95.2-5.88.68-.33-.19-.73-.12-1.08-.34-.67-.42-.82-.82-.19-1.37,3.6-1.37,7.22-1.67,10.88-.26.14.05.31.05.46.07-.52,1-1.36,1.46-2.47,1.46Z"/>
      <path class="cls-43" d="M126.11,110.06c-1.26.17-2.51.55-3.14,1.67-.43.76-.96,1.19-1.65,1.59-.32.19-.62.3-.99.32-.69.05-1.64.53-1.23-.93.05-.17-.25-.47-.44-.66-.7-.69-1.42-1.35-2.13-2.02,2.8-.68,5.61-.77,8.44-.11.37.09.76.09,1.15.13Z"/>
      <path class="cls-10" d="M62.84,97.78c-3.59.43-6.95,1.58-10.08,3.38-.32-.27-.69-.5-.73-.98,3.11-2.06,6.53-3.27,10.26-3.59,1.96-.16,3.92-.16,5.89,0,.14.01.27.03.41.04.07.45-.35.29-.45.44.47-.04,1.09-.02,1.14.64.03.38-.47.19-.75.13-.22-.02-.44-.04-.65-.05-1.67-.16-3.35-.15-5.02,0Z"/>
      <path class="cls-44" d="M66.9,101.61c.32.12.7-.02.97.27-.41.35-.86.64-1.25,1.04-.42.43.15.58.04.86-3.08-.19-6.04.29-8.88,1.51l.02-.08c-.91-.7-.48-1.42-.04-2.14,1.82-.92,3.81-1.18,5.79-1.46,1.11-.14,2.23-.13,3.35,0Z"/>
      <path class="cls-73" d="M49.66,134.2c-1.1-1.68-2.3-3.3-3.05-5.19-.17-.42-.32-.84-.48-1.26.21-.88.95-1.5,1.09-2.4.68.07.39.78.81.96.82,2.36,2.01,4.52,3.54,6.49-.23.77-.84,1.16-1.51,1.48-.13-.03-.26-.05-.39-.08Z"/>
      <path class="cls-28" d="M41.99,115.82c-.8,3.72-.73,7.45.01,11.17.16.79-.28,1.13-.98,1.26-1.43-4.82-1.41-9.61.23-14.38.04,0,.09-.01.12,0,.52.28.32.66.14,1.03.68.04.65.43.47.91Z"/>
      <path class="cls-19" d="M58.27,137.65c1.73.7,3.54,1.04,5.36,1.35-.04-.15.04.21-.08.1-.03-.03-.12.08-.12.17.48,0,.94.06,1.28.44.24.26.51.54.32.93-.17.34-.52.31-.83.29-.53-.03-1.07-.3-1.6.01-2.05-.13-3.96-.71-5.78-1.65-.1-1.06.79-1.25,1.45-1.64Z"/>
      <path class="cls-39" d="M46.7,130.89c.7,1.37,1.64,2.58,2.53,3.83.06.08.11.16.17.25-.08,1.06-.78,1.25-1.66,1.19-1.24-.94-1.94-2.28-2.64-3.62-.05-.49-.29-.9-.49-1.33-.14-.29-.29-.6-.12-.91.21-.39.52-.76.94-.85.44-.1.52.4.72.67.19.25.28.58.55.77Z"/>
      <path class="cls-52" d="M56.58,110.49c3.37-2.57,7.12-3.44,11.27-2.57-.13.61-.62.43-1.01.46-.16.01-.31,0-.37.2.14-.1.36-.09.38.03.08.52-.27.29-.51.26-3.17-.13-6.09.62-8.74,2.39-.55.01-.97-.13-1.02-.77Z"/>
      <path class="cls-29" d="M62.59,140.94c.36-.63.9-.5,1.45-.34.29.08.67.29.81-.12.12-.34-.28-.52-.49-.73-.41-.42-1.11-.04-1.58-.62.31-.05.58-.09.85-.13,1.55-.07,3.1-.15,4.65-.22,1.43-.1,2.07.45,1.97,1.67-2.52.69-5.07.99-7.66.49Z"/>
      <path class="cls-25" d="M42.93,129.93c1.09,2.4,2.29,4.72,4.08,6.7.04.06.08.13.1.21-.07.49.33,1.21-.62,1.26-2.32-2.41-3.96-5.23-5-8.4-.17-.39-.11-.67.35-.39.36.21.71.45,1.09.63Z"/>
      <path class="cls-60" d="M86.1,139.04c-.45-.43-.25-.98-.25-1.47-.01-12.93-.01-25.87-.01-38.8-.23-2.24-.85-4.47,0-6.71.08-.08.17-.16.25-.24.02.32.07.63.07.95,0,15.11,0,30.22,0,45.33,0,.32-.04.63-.06.95Z"/>
      <path class="cls-48" d="M66.66,103.78c-.06-.29-.71-.13-.5-.47.3-.48.36-1.16,1-1.38.21-.07.47-.03.7-.05,1.25-.05,2.39.49,3.59.69.16.09.32.19.47.28-.17.84-.42,1.61-1.47,1.68l-3.81-.76Z"/>
      <path class="cls-35" d="M58.27,137.65c-.34.67-1.23.86-1.45,1.64-1.45-.53-2.75-1.32-3.9-2.36.41-.56.98-.99,1.33-1.6,1.27.9,2.63,1.63,4.02,2.32Z"/>
      <path class="cls-21" d="M59.16,105.68c-.5,1.26.82,1.16,1.27,1.71-1.3.64-2.6,1.27-3.91,1.91-.73-.19-1.46-.37-1.83-1.14.98-.95,2.22-1.48,3.36-2.19.37-.1.74-.19,1.11-.29Z"/>
      <path class="cls-44" d="M51.53,124.24c-.66-2.56-.47-5.05.51-7.5.43.31.76.7.94,1.2-.54,1.98-.53,3.99-.23,6-.27.64-.71.59-1.21.3Z"/>
      <path class="cls-64" d="M55.87,139.81c-.7.4-.94,1.42-1.94,1.4-1.28-.59-2.42-1.38-3.43-2.36.55-.5,1.22-.83,1.81-1.27,1.18.74,2.37,1.48,3.55,2.22Z"/>
      <path class="cls-54" d="M73.87,132.14c-1.47,1.02-2.91,2.08-4.74,2.38-.51.04-.3-.22-.24-.49.05-.23-.15-.03-.23-.04-.27-.06-.57-.04-.55-.44,2.37-.77,4.58-1.81,6.37-3.93.15,1.09.18,1.9-.61,2.52Z"/>
      <path class="cls-18" d="M52.31,137.59c-.17,1.04-1.07,1.05-1.81,1.27-1.06-.65-1.78-1.68-2.72-2.47-.02-.08-.03-.15-.04-.23.62-.3,1.31-.51,1.66-1.19.97.87,1.94,1.74,2.91,2.62Z"/>
      <path class="cls-65" d="M54.24,135.33c-.22.72-.59,1.31-1.33,1.6-1.11-.71-2.06-1.6-2.86-2.64.47-.53.88-1.12,1.51-1.48.89.84,1.79,1.68,2.68,2.52Z"/>
      <path class="cls-38" d="M51.53,124.24c.07-.1.1-.42.17-.29.39.7.7.02,1.04,0,.54,1.99,1.45,3.8,2.68,5.45-.26.47-.31.49-1.2.52-1.43-1.64-2.38-3.51-2.69-5.68Z"/>
      <path class="cls-56" d="M68.11,133.55c.32.34,1.23.07,1.02.97-2.35.79-4.72.91-7.11.26.14-.9.79-1.01,1.53-.98,1.53.02,3.06.04,4.57-.25Z"/>
      <path class="cls-49" d="M70.26,140.45c-.19-1.11-.95-1.55-1.97-1.67,1.38-.45,2.77-.89,4.15-1.34.26.13.21.53.69.55.5.02.92.43.75,1.09-1.1.73-2.34,1.11-3.62,1.37Z"/>
      <path class="cls-7" d="M70.47,104.54c.87-.23.91-1.18,1.47-1.68.15.03.31.05.45.11q2.24.86,2.13,3.49c-1.33-.79-2.69-1.35-4.04-1.92Z"/>
      <path class="cls-6" d="M74.52,135.34c-.79.57-1.64,1.04-2.56,1.36-.59-.44-1.16-.9-1.22-1.72,1.16-.65,2.42-1.12,3.38-2.09.42-.1.43.17.42.47-.01.66-.02,1.32-.02,1.98Z"/>
      <path class="cls-45" d="M41.99,115.82c-.24-.65-.49-1.3-.73-1.95.43-1.74,1.18-3.33,2.15-4.82.4.16.7.44.99.75-1,1.93-1.75,3.95-2.4,6.02Z"/>
      <path class="cls-51" d="M63.54,133.8c-.66.09-1.1.52-1.53.98-1.75-.22-3.28-.97-4.69-1.99.18-.39.45-.71.79-.98,1.69.98,3.51,1.61,5.43,1.99Z"/>
      <path class="cls-75" d="M68.03,106.96c.91-.35,1.68-.93,2.47-1.46.97.2,1.86.59,2.65,1.18-.1,1.02-.68,1.47-1.69,1.42-1.15-.38-2.29-.76-3.44-1.14Z"/>
      <path class="cls-33" d="M44.38,109.8c-.59.09-.8-.31-.99-.75.86-1.7,2-3.19,3.34-4.54q.34.27.3,1.51c-.88,1.26-1.77,2.52-2.65,3.78Z"/>
      <path class="cls-53" d="M70.58,108.8c1.42.41,2.57,1.25,3.6,2.26.64.62.63,1.37.15,2.11-1.06-1.43-2.55-2.32-4.06-3.17-.15-.84-.11-.98.31-1.19Z"/>
      <path class="cls-69" d="M52.97,117.94c-.43-.31-.88-.6-.94-1.2.34-1.36,1.02-2.53,1.92-3.59.7-.24.97.09.98.75-.8,1.27-1.47,2.61-1.96,4.04Z"/>
      <path class="cls-32" d="M46.49,138.1c.58-.24.26-.92.62-1.26,1.12,1.19,2.3,2.32,3.56,3.37-.16.42-.46.73-.79,1.02-1.28-.87-2.38-1.95-3.38-3.12Z"/>
      <path class="cls-36" d="M52.03,100.18c.6.06.59.58.73.98-1.02.73-2.04,1.46-3.06,2.2-.5,0-1.04.12-1.26-.53,1.04-1.1,2.28-1.93,3.59-2.65Z"/>
      <path class="cls-77" d="M71.47,108.1c.84-.14,1.23-.83,1.69-1.42.46.25.92.49,1.38.74v2.62c-1.08-.68-2.07-1.31-3.07-1.93Z"/>
      <path class="cls-16" d="M58.12,131.81c-.07.48-.51.67-.79.98-1.25-.72-2.25-1.71-3.1-2.87.32-.36.8-.35,1.2-.52.9.8,1.79,1.61,2.69,2.41Z"/>
      <path class="cls-11" d="M49.88,141.22c-.08-.61.34-.83.79-1.02,1.01.66,2.03,1.32,3.04,1.98-.15.49-.37.9-.96.94-1.05-.5-2.02-1.1-2.88-1.9Z"/>
      <path class="cls-2" d="M74.09,99.52c-1.12-.41-2.23-.83-3.35-1.24.05-.65.23-1.16,1.05-.98,1,.14,1.95.43,2.8,1-.04.46.56,1.19-.51,1.22Z"/>
      <path class="cls-74" d="M70.58,108.8c-.1.4-.21.79-.31,1.19-1.25-.57-2.61-.78-3.93-1.12.75-.51-.6-.14-.29-.42.55-.62,1.31-.04,1.79-.53.96.13,1.89.37,2.73.88Z"/>
      <path class="cls-57" d="M54.93,113.9c-.21-.4-.48-.73-.98-.75.68-1.08,1.59-1.93,2.62-2.67.34.26.68.52,1.02.77-.89.88-1.78,1.76-2.66,2.64Z"/>
      <path class="cls-59" d="M48.44,102.83c.36.32.93.13,1.26.53-.89.89-1.78,1.77-2.66,2.66-.93-.34.2-1.08-.3-1.51.57-.56,1.13-1.12,1.7-1.68Z"/>
      <path class="cls-14" d="M72.18,102.08c.12-.88.98-1.19,1.42-1.82.08-.01.16-.02.25-.03,1.24.62.52,1.73.74,2.75-.88-.32-1.64-.61-2.41-.89Z"/>
      <path class="cls-42" d="M71.8,97.3c-.63.02-.62.74-1.05.98-.75-.15-1.49-.29-2.24-.44.19-.02.38-.03.6-.05-.47-1.03-1.48-.08-2.11-.67.44-.53,1.19.02,1.59-.48,1.11.05,2.19.25,3.22.67Z"/>
      <path class="cls-13" d="M73.87,139.08c-.2-.51-.51-.98-1.09-.96-.76.03-.06-.55-.35-.68.65-.35,1.3-.7,2.11-1.14,0,.95,0,1.72,0,2.49l-.67.29Z"/>
      <path class="cls-23" d="M42.93,129.93c-.47.32-.81.13-1.08-.28-.17-.25-.3-.41-.36.05-.28-.44-.44-.93-.47-1.45.26-.47.89-.65.98-1.26.31.98.62,1.96.93,2.94Z"/>
      <path class="cls-68" d="M90.87,148.16c-.57.51-1.31.02-1.94.34.46.31,1.01-.03,1.47.22-.79.7-3.05.52-3.55-.32-.21-.36.41-.2.42-.48,1.19.28,2.39.32,3.6.24Z"/>
      <path class="cls-72" d="M77.18,139.11v-5.33c.1,2,.61,4,.02,5.98,0-.22-.01-.44-.02-.65Z"/>
      <path class="cls-66" d="M68.17,96.59c-1.96,0-3.92,0-5.89,0,1.96-.37,3.92-.37,5.89,0Z"/>
      <path class="cls-78" d="M74.09,99.52c.88-.11.27-.84.51-1.22.24.62.68,1.32-.51,1.44,0-.07,0-.14,0-.22Z"/>
      <path class="cls-20" d="M171.66,131.09c.42,3.6-2.14,4.79-4.5,5.56-1.34.44-2.7.59-4.1.21-1.57-.43-2.45-1.39-2.62-2.96-.22-1.96.37-3.24,1.81-4.04,1.63-.9,3.43-.89,5.2-1.05,1.07-.09,2.15,0,3.22-.1.89-.08,1.11.27,1,1.06-.06.43,0,.87-.01,1.31Z"/>
      <path class="cls-61" d="M85.84,92.06c0,2.24,0,4.47,0,6.71-.43-.21-.56-.53-.35-.98.13-.27.17-.6-.13-.73-.4-.17-.32.34-.49.46-1.36,1-1.56,3.19-3.62,3.47-.39.05-.53.49-.62.82-.22.85-.85,1.53-1.5,1.76-1.23.43-1.71,1.1-1.68,2.33v-7.14c-.26-2.06-.04-4.13-.12-6.2-.02-.46.18-.64.63-.63,2.46.07,4.93-.14,7.4.12h.48Z"/>
      <path class="cls-60" d="M85.36,92.06c-2.3,0-4.6.03-6.9-.01-.77-.01-1.05.23-1.03,1.02.04,1.9.01,3.8.01,5.71-.52-1.01-.15-2.1-.22-3.14-.07-.99-.01-1.99-.01-2.98,0-.42.02-.82.6-.82,2.42,0,4.84.02,7.27.04.1,0,.19.13.29.19Z"/>
      <path class="cls-26" d="M102.13,116.48c.34-2.87-1.25-4.54-3.44-5.97.37,0,.84,0,1.31,0,.48,0,.96,0,1.43.01.42.01.69.24.7.66.02,1.76,0,3.53,0,5.29Z"/>
      <path class="cls-40" d="M64.9,123.1c-.96-.07-1.68-.9-1.6-1.86.08-.9.89-1.63,1.76-1.59.94.05,1.7.88,1.66,1.82-.04.96-.87,1.69-1.82,1.62Z"/>
      <path class="cls-24" d="M70.75,134.99c.39.59,1.01,1,1.22,1.72-1.59.83-3.29,1.23-5.07,1.35-1.11-.15-2.23-.17-3.34.01-1.45.01-2.83-.32-4.15-.9-.25-.37-.24-.69.18-.94.43-.26.8-.65,1.33-.74,3.33.8,6.61.69,9.84-.49Z"/>
      <path class="cls-70" d="M48.64,125.16c-.72-2.85-.66-5.68.24-8.49.15.03.38.11.43-.04.36-1.26,1.11-1.1,1.99-.6-1.01,2.82-1.18,5.7-.67,8.63-.75-.19-1.31.38-1.98.5Z"/>
      <path class="cls-5" d="M48.64,125.16c.23-.54.9-.5,1.25-.99.28-.39.4.42.73.49.54,2.07,1.68,3.86,2.65,5.73-.21.69-.41,1.39-1.19,1.68-1.74-2.01-2.97-4.28-3.44-6.92Z"/>
      <path class="cls-27" d="M51.29,116.03c-.26-.03-.5.22-.78.02-.68-.46-.79,0-.86.54-.04.25.13.65-.21.71-.38.07-.38-.4-.56-.63.59-2.09,1.44-4.05,2.94-5.67.28-.13.45-.46.86-.03.51.55.83,1.02.44,1.75-.61,1.1-1.21,2.21-1.82,3.31Z"/>
      <path class="cls-67" d="M60.91,135.48c-.35.3-.65.77-1.05.87-.56.14-.23.6-.45.81-1.59-.41-2.97-1.21-4.24-2.23.02-.83.59-1.27,1.21-1.66,1.43.89,2.94,1.63,4.52,2.2Z"/>
      <path class="cls-41" d="M56.38,133.28c-.23.68-.91,1.03-1.21,1.66-1.21-.76-2.22-1.73-3.08-2.86.43-.54.57-1.28,1.19-1.68,1.04.96,2.07,1.92,3.11,2.88Z"/>
      <path class="cls-9" d="M53.11,112.72c-.15-.79-.08-1.74-1.3-1.72.8-1.11,1.75-2.06,2.88-2.84.61.38,1.22.76,1.83,1.14-1.21,1.07-2.43,2.13-3.41,3.42Z"/>
      <path class="cls-75" d="M66.31,106.71c.44.03.92-.19,1.31.19-.45.01-.9.04-1.31-.19Z"/>
      <path class="cls-34" d="M46.7,130.89c-.64-.18-.69-.92-1.16-1.25-.92.52-1.05,1.19-.43,2.02.22.3.17.59,0,.88-4.04-7.87-3.99-15.62.7-23.23-.12,1.05.45,1.52,1.41,1.68-3.19,5.73-3.7,11.68-1.41,17.84.26.7.6,1.37.9,2.06Z"/>
      <path class="cls-80" d="M60.11,99.21c.89.14-.07.28,0,.44.23.58.24,1.3,1.04,1.48-3.44.74-6.5,2.25-9.28,4.38-.68-.38-.93-1.07-1.26-1.71,2.82-2.25,5.92-3.93,9.51-4.59Z"/>
      <path class="cls-17" d="M47.21,110.99c-.63.15-1.2-.12-1.81-.25.1-.49.5-.9.41-1.44.5-.98,1.14-1.86,1.93-2.62.6.34,1.62.1,1.67,1.21-.73,1.03-1.47,2.06-2.2,3.1Z"/>
      <path class="cls-71" d="M49.41,107.89c-.28-.79-1.29-.56-1.67-1.21.79-1.13,1.82-2.01,2.86-2.89.68.38,1.04.99,1.26,1.71-.82.79-1.63,1.59-2.45,2.38Z"/>
      <path class="cls-66" d="M62.84,97.78c1.67-.34,3.35-.35,5.02,0-1.67,0-3.35,0-5.02,0Z"/>
      <path class="cls-58" d="M48.02,126.32c-.44-.03-.42-.52-.82-.82.42,1.22-.67,1.55-1.07,2.25-.32-1.68-.81-3.33-.92-5.04-.22-3.66.47-7.12,2.24-10.34,1.28-.08,1.24.92,1.43,1.73-1.65,3.98-1.91,8.05-.86,12.22Z"/>
      <path class="cls-50" d="M57.77,103.07c.17.04.52.15.28.3-.86.55-.4,1.2-.24,1.84-1.29.8-2.59,1.61-3.88,2.41-.31-.61-1.11-.87-1.16-1.65,1.46-1.32,3.12-2.3,5-2.9Z"/>
      <path class="cls-27" d="M48.88,114.1c-.46-.59-.57-1.47-1.43-1.73.68-1.35,1.29-2.74,2.64-3.59.61.42,1.22.83.98,1.73-.73,1.2-1.63,2.29-2.2,3.59Z"/>
      <path class="cls-12" d="M51.08,110.51c-.06-.73-.82-1.06-.98-1.73.47-1.34,1.66-1.99,2.67-2.81.25.65,1.31.72,1.16,1.65-.95.96-1.9,1.92-2.85,2.89Z"/>
      <path class="cls-46" d="M63.55,138.06c1.11-.36,2.23-.34,3.34-.01-1.11.15-2.23.17-3.34.01Z"/>
      <path class="cls-31" d="M66.9,101.61c-1.12,0-2.23,0-3.35,0,1.11-.34,2.23-.33,3.35,0Z"/>
    </g>
  </g>
</svg>