<?xml version="1.0" encoding="UTF-8"?>
<svg id="Capa_2" data-name="Capa 2" xmlns="http://www.w3.org/2000/svg" viewBox="0 0 245.76 245.76">
  <defs>
    <style>
      .cls-1 {
        fill: #ae285f;
      }

      .cls-1, .cls-2, .cls-3, .cls-4, .cls-5, .cls-6, .cls-7, .cls-8, .cls-9, .cls-10, .cls-11, .cls-12, .cls-13 {
        stroke-width: 0px;
      }

      .cls-2 {
        fill: #e4347d;
      }

      .cls-3 {
        fill: #e8337d;
      }

      .cls-4 {
        fill: #ea317b;
      }

      .cls-5 {
        fill: #e92f7c;
      }

      .cls-6 {
        fill: #e6317c;
      }

      .cls-7 {
        fill: #e7337d;
      }

      .cls-8 {
        fill: #ea347d;
      }

      .cls-9 {
        fill: #e8327d;
      }

      .cls-10 {
        fill: #fdfdfd;
      }

      .cls-11 {
        fill: #e8307c;
      }

      .cls-12 {
        fill: #fcfcfc;
      }

      .cls-13 {
        fill: #e6327c;
      }
    </style>
  </defs>
  <g id="Capa_1-2" data-name="Capa 1">
    <g>
      <path class="cls-10" d="M.02,122.88C.02,82.29.03,41.69,0,1.1,0,.2.2,0,1.1,0c81.19.02,162.37.02,243.56,0,.9,0,1.1.2,1.1,1.1-.02,81.19-.02,162.37,0,243.56,0,.9-.2,1.1-1.1,1.1-81.19-.02-162.37-.02-243.56,0-.9,0-1.1-.2-1.1-1.1.03-40.59.02-81.19.02-121.78Z"/>
      <path class="cls-13" d="M109.49,133.49c2.63,1.75,5.39,2.97,8.5,3.3,1.4.15,2.79.08,4.18-.13,1.25-.19,2.27-1.22,2.46-2.39.14-.89-.63-2.19-1.59-2.71-1.8-.99-3.84-1.25-5.77-1.83-2.08-.63-4.14-1.24-5.93-2.62-1.75-1.35-2.79-3.07-3.09-5.16-.98-6.85,2.7-10.99,9.06-12.07,4.89-.83,9.67-.19,14.21,1.92.55.26.91.46.64,1.24-.67,1.94-1.21,3.92-1.82,5.96-2.48-1.19-4.98-2.07-7.65-2.35-1.57-.16-3.1-.11-4.56.56-.9.41-1.34,1.13-1.33,2.08,0,.94.43,1.64,1.31,2.1,2.46,1.28,5.2,1.68,7.77,2.6,2.47.89,4.7,2.11,6.21,4.38,1.92,2.9,1.52,8.47-.73,11.13-2.45,2.89-5.65,4.07-9.3,4.34-4.84.35-9.41-.56-13.72-2.81-.93-.49-1.26-.95-.81-2.02.73-1.75,1.29-3.57,1.97-5.49Z"/>
      <path class="cls-7" d="M80.08,91.64c1.76-.02,3.51-.02,5.27-.06.57-.01.81.18.74.75-.03.24,0,.48,0,.72,0,16.25,0,32.5.03,48.75,0,1.06-.22,1.42-1.35,1.37-2.23-.1-4.47-.03-6.71-.03-.44,0-.86.07-.86-.63-.03-5.31-.09-10.62-.14-15.92.11-1.31.04-2.63.04-3.94,0-9.81,0-19.62,0-29.43,0-1.7-.2-1.48,1.55-1.51.48,0,.96.08,1.42-.08Z"/>
      <path class="cls-3" d="M102.33,128.11c0,5.47.07,10.94-.03,16.41-.05,2.83-.54,5.59-2.49,7.91-1.18,1.4-2.65,2.27-4.32,2.78-3.26.98-6.52.79-9.75-.23-.65-.21-.83-.42-.68-1.17.37-1.87.9-3.71,1.02-5.63.05-.8.6-.49.95-.37,1.09.36,2.19.41,3.31.29,1.8-.19,2.54-.92,2.71-2.74.28-2.99.22-5.98.23-8.98.02-8.31.02-16.61-.01-24.92,0-.91.19-1.23,1.16-1.19,2.31.08,4.63.07,6.95,0,.86-.02,1.05.25,1.04,1.07-.04,5.59-.02,11.18-.02,16.77h-.06Z"/>
      <path class="cls-6" d="M74.5,139.67c.23,2.56.14,2.77-2.31,3.43-6.26,1.7-12.39,1.47-18.16-1.72-3.77-2.09-6.8-5-8.88-8.85-3.26-6.03-3.96-12.32-1.54-18.74,3.24-8.61,9.61-13.52,18.67-14.98,3.72-.6,7.29.03,10.8,1.2.48.16,1.06.29,1.31.75.33.61.42,1.44.08,1.95-.33.5-.9-.14-1.34-.31-5.61-2.17-11.18-2.17-16.68.33-4.18,1.9-7.42,4.93-9.59,8.93-2.52,4.65-3.15,9.65-1.79,14.81.97,3.67,2.71,6.93,5.51,9.56,4.52,4.23,9.83,6.32,16.06,5.83,2.71-.21,5.34-.73,7.86-2.19Z"/>
      <path class="cls-9" d="M72.89,121.28c.01,4.69-3.16,7.86-7.76,7.98-4.51.11-8.13-3.6-8.07-7.86.06-4.44,3.57-8.03,8.06-7.97,4.26.06,7.96,3.28,7.77,7.86Z"/>
      <path class="cls-11" d="M74.49,106.34c-10.2-5.51-19.11-1.14-22.96,3.69-5.34,6.72-5.62,14.56-.87,21.51,2.64,3.87,6.42,6.16,10.97,7.11,4.54.95,8.82.11,12.83-2.28.32,2.26.2,2.59-1.5,3.25-5.61,2.18-11.25,2.27-16.64-.5-6.47-3.32-10.32-8.61-11.01-16.01-.53-5.7,1.16-10.67,5.04-14.84,6-6.45,13.27-8.06,21.58-5.46.34.11.67.24.99.4q1.83.91,1.56,3.11Z"/>
      <path class="cls-5" d="M74.46,132.79c.33,2.43.27,2.71-1.93,3.67-6.43,2.8-12.51,2.31-18.14-2.1-6.42-5.03-7.88-13.69-4.49-20.43,2.57-5.11,6.84-8.24,12.6-9.14,4-.63,7.74.07,11.23,2.15.6.36.86.75.83,1.41-.02.51,0,1.03,0,1.75-4.57-3.44-9.51-4.31-14.79-2.41-3.02,1.09-5.48,3.03-7.17,5.81-3.71,6.14-2.89,13.93,2.9,19.06,4.3,3.8,12.73,5.1,18.96.22Z"/>
      <path class="cls-8" d="M74.5,143.17c.3,1.04-.07,1.54-1.07,1.88-6.67,2.22-13.28,1.99-19.46-1.25-9-4.7-13.82-12.26-13.89-22.57-.04-5.86,1.94-11.02,5.66-15.55,3.99-4.88,9.09-7.86,15.25-8.94,4.38-.77,8.72-.4,12.94,1.18.85.32.8.89.61,1.35-.26.61-.75.05-1.1-.08-5.95-2.2-11.82-1.94-17.65.51-5.56,2.34-9.51,6.35-12.16,11.69-1.29,2.59-1.91,5.36-2.15,8.26-.35,4.32.46,8.42,2.37,12.23,2.72,5.46,6.97,9.38,12.72,11.57,6.01,2.29,11.99,2.04,17.94-.28Z"/>
      <path class="cls-4" d="M74.5,129.77c.45,1.51-.5,2.33-1.45,2.95-4.25,2.79-8.84,3.34-13.51,1.3-4.79-2.09-7.56-5.82-8.24-11.09-.95-7.41,4.59-14.12,11.44-15.12,4.26-.62,8.13.34,11.43,3.23.65.57.31,1.31.42,2.23-3.03-3.08-6.45-4.7-10.6-4.32-3.23.3-6.11,1.57-8.26,4.04-4.58,5.25-3.87,12.25.02,16.76,4.04,4.68,13.22,5.99,18.74.02Z"/>
      <path class="cls-2" d="M97.87,96.4c3.11,0,5.01,1.95,4.99,5.1-.02,2.83-2,4.71-4.98,4.72-3.28,0-5.32-1.87-5.32-4.91,0-3.04,2.02-4.92,5.31-4.91Z"/>
      <path class="cls-1" d="M80.08,91.64c-.59.37-1.25.19-1.87.17-.8-.03-1.05.28-1.01,1.05.05,1,0,2,0,2.99,0,9.78,0,19.56,0,29.34,0,.47.12.96-.15,1.41-.03-3.83-.07-7.66-.08-11.49-.01-7.46.01-14.93-.02-22.39,0-.86.15-1.25,1.09-1.12.67.09,1.35.04,2.03.05Z"/>
      <path class="cls-12" d="M66.64,121.52c-.02.81-.81,1.69-1.53,1.7-.95.02-1.82-.96-1.77-1.98.04-.76.9-1.57,1.67-1.57.87,0,1.66.9,1.64,1.84Z"/>
    </g>
  </g>
</svg>