<?xml version="1.0" encoding="UTF-8"?>
<svg id="Capa_2" data-name="Capa 2" xmlns="http://www.w3.org/2000/svg" viewBox="0 0 245.76 245.76">
  <defs>
    <style>
      .cls-1 {
        fill: #fefefe;
      }

      .cls-1, .cls-2, .cls-3, .cls-4, .cls-5, .cls-6, .cls-7, .cls-8, .cls-9, .cls-10, .cls-11, .cls-12, .cls-13 {
        stroke-width: 0px;
      }

      .cls-2 {
        fill: #e4347d;
      }

      .cls-3 {
        fill: #e6307c;
      }

      .cls-5 {
        fill: #e8337d;
      }

      .cls-6 {
        fill: #ea307a;
      }

      .cls-7 {
        fill: #e8317d;
      }

      .cls-8 {
        fill: #e7337d;
      }

      .cls-9 {
        fill: #e82f7c;
      }

      .cls-10 {
        fill: #e92f7b;
      }

      .cls-11 {
        fill: #020101;
      }

      .cls-12 {
        fill: #e6327c;
      }

      .cls-13 {
        fill: #e9337d;
      }
    </style>
  </defs>
  <g id="Capa_1-2" data-name="Capa 1">
    <g>
      <path class="cls-4" d="M.02,245.46C.02,164.01.02,82.55,0,1.1,0,.2.2,0,1.1,0c81.47.02,162.93.02,244.4.02.22.42.11.86.11,1.29,0,80.93,0,161.86,0,242.79,0,1.65.17,1.46-1.47,1.46-80.94,0-161.89,0-242.83,0-.43,0-.87.11-1.29-.11Z"/>
      <path class="cls-1" d="M.02,245.46c81.35,0,162.69,0,244.04.03,1.2,0,1.47-.27,1.47-1.47-.03-81.33-.03-162.66-.03-244,.07.05.25-.12.24.12-.01.32,0,.64,0,.96,0,81.17,0,162.35.02,243.52,0,.9-.2,1.1-1.1,1.1-81.19-.02-162.37-.02-243.56-.04-.35,0-.81.28-1.08-.22Z"/>
      <path class="cls-1" d="M172.23,139.19c-1.89,2.35-4.2,3.95-7.08,4.52-4.03.79-7.84.29-11.05-2.54-.77-.67-1.38-1.54-1.79-2.48-2.32-5.25-1.18-11.83,5.84-14.28,3.92-1.36,7.96-1.44,12.03-1.43,1.6,0,1.6,0,1.46-1.63-.24-2.82-1.68-4.15-4.53-4.33-3.96-.25-7.65.62-11.08,2.58-.6.34-.76.18-.9-.35-.47-1.84-1.11-3.63-1.52-5.49-.17-.75.06-.98.61-1.26,2.87-1.5,5.91-2.5,9.13-2.87,2.98-.35,5.95-.36,8.9.38,4.95,1.25,7.88,4.53,8.54,9.58.21,1.63.2,3.27.2,4.9.02,5.87,0,11.74.04,17.61,0,.85-.22,1.06-1.05,1.03-2.04-.06-4.07-.03-6.11-.01-.5,0-.74-.04-.83-.66-.16-1.07-.51-2.11-.82-3.28Z"/>
      <path class="cls-12" d="M120.24,143.88c-4.59.07-8.55-1.14-12.31-3.14-.7-.37-.76-.72-.5-1.4.62-1.64,1.21-3.29,1.71-4.97.27-.89.59-.77,1.23-.38,3.09,1.89,6.38,3.09,10.07,2.94.85-.03,1.67-.17,2.45-.5,1.01-.43,1.59-1.18,1.65-2.29.07-1.14-.37-2.02-1.4-2.56-1.57-.84-3.3-1.17-4.99-1.62-1.58-.42-3.15-.87-4.65-1.55-3.44-1.58-5.29-4.21-5.41-8.05-.12-4.04,1.38-7.14,5-9.1,3.42-1.85,7.12-1.95,10.85-1.59,2.67.26,5.24.99,7.68,2.17.61.29.8.58.56,1.28-.59,1.69-1.1,3.41-1.59,5.14-.18.65-.41.69-.99.4-2.64-1.32-5.43-2.09-8.4-2.1-.89,0-1.75.15-2.59.43-1.03.34-1.73.98-1.84,2.12-.1,1.1.49,1.81,1.38,2.31,1.37.77,2.89,1.13,4.39,1.55,1.54.43,3.07.87,4.55,1.46,4.25,1.71,6.25,4.53,6.26,8.82,0,4.47-2.17,7.75-6.25,9.44-2.29.95-4.68,1.28-6.85,1.21Z"/>
      <path class="cls-8" d="M86.15,117.35c0,8.18-.01,16.37.02,24.55,0,.91-.19,1.25-1.17,1.22-2.19-.07-4.39-.07-6.59,0-.9.03-1.21-.18-1.24-1.15-.16-4.39-.12-8.78-.13-13.17-.02-11.94,0-23.87-.07-35.81,0-1.2.35-1.46,1.47-1.41,1.99.09,3.99.02,5.99.02q1.74,0,1.74,1.8c0,7.98,0,15.97,0,23.95h-.02Z"/>
      <path class="cls-5" d="M102.37,128.13c0,5.35,0,10.71,0,16.06,0,1.44-.2,2.87-.56,4.26-1.01,3.89-3.54,6.25-7.47,7.05-2.83.57-5.64.34-8.41-.46-.74-.21-1.13-.46-.88-1.41.46-1.73.76-3.51,1.04-5.28.11-.7.34-.77.93-.57.91.31,1.86.45,2.83.42,1.93-.05,2.99-.93,3.23-2.83.12-.95.15-1.91.15-2.87.01-10.31.03-20.61-.01-30.92,0-1.06.25-1.36,1.31-1.32,2.23.09,4.48.08,6.71,0,1-.04,1.17.31,1.16,1.21-.04,5.55-.02,11.1-.02,16.66Z"/>
      <path class="cls-1" d="M196.83,115.43c2.6-5,7.09-6.55,11.6-5.62.78.16,1.26.37,1.09,1.35-.36,2.12-.7,4.25-.9,6.38-.09,1.02-.45,1.05-1.31.9-2.52-.45-4.98-.41-7.22,1.12-1.74,1.19-2.67,2.81-2.69,4.89-.06,5.83-.1,11.66-.06,17.49,0,1.04-.29,1.23-1.25,1.2-2.39-.07-4.79-.05-7.19,0-.68.01-.96-.08-.96-.88.03-10.39.03-20.77,0-31.16,0-.71.24-.84.88-.83,1.88.04,3.76.12,5.63-.02,1.31-.1,1.58.45,1.69,1.57.11,1.17.42,2.31.68,3.62Z"/>
      <path class="cls-3" d="M74.44,139.78c.05.16.09.24.09.31-.04,2.39.5,1.98-1.95,2.81-13.49,4.58-27.64-3.78-30.08-17.75-2.11-12.07,6.28-23.97,18.38-26.18,3.94-.72,7.8-.52,11.56.79,2.68.93,2.09.55,2.04,3.22-5.57-2.55-11.24-2.97-16.96-.74-4.01,1.56-7.24,4.16-9.64,7.75-4.75,7.1-4.66,16.36.24,23.16,3.01,4.17,7.01,6.95,11.99,8.19,4.93,1.23,9.72.59,14.31-1.56Z"/>
      <path class="cls-7" d="M65.06,129.27c-4.51.02-8-3.41-8.03-7.88-.02-4.47,3.53-7.98,8.09-7.98,4.46,0,7.89,3.49,7.87,8.02-.01,4.41-3.46,7.82-7.94,7.84Z"/>
      <path class="cls-9" d="M74.43,136.36c.33,2.38.24,2.56-1.8,3.37-12.36,4.96-25.85-3.15-27.34-16.44-1.13-10.08,6.38-19.86,16.41-21.41,3.75-.58,7.39-.28,10.92,1.17,2.1.87,2.11.85,1.84,3.33-4.52-2.54-9.26-3.38-14.29-1.92-3.8,1.11-6.9,3.24-9.29,6.41-4.63,6.14-4.68,14.61-.06,20.87,2.75,3.73,6.43,6.02,10.97,6.92,4.49.89,8.7.02,12.65-2.3Z"/>
      <path class="cls-10" d="M74.43,110.04c-3.7-2.89-7.84-3.89-12.38-3-3.45.68-6.31,2.42-8.5,5.18-4.48,5.64-4.26,13.44.53,18.91,4.21,4.81,12.87,7.22,20.28,1.76.54,2.05.32,2.54-1.49,3.46-10.49,5.3-22.93-1.17-24.6-12.79-1.3-9,5.35-17.64,14.41-18.84,3.56-.47,6.91.05,10.08,1.69,2.05,1.06,2.05,1.1,1.66,3.64Z"/>
      <path class="cls-13" d="M74.45,143.23c.32.91.06,1.44-.92,1.77-15.66,5.33-31.01-4.94-33.26-19.96-2.32-15.45,10.54-29.86,27-28.62,2.23.17,4.42.64,6.52,1.45.28.11.7.11.75.5.04.35.11.82-.07,1.04-.27.31-.65-.07-.96-.19-12.28-4.63-26.33,1.84-30.71,14.16-5.71,16.09,6.8,32.66,23.88,31.61,1.35-.08,2.7-.28,4.01-.65,1.26-.35,2.52-.73,3.78-1.1Z"/>
      <path class="cls-1" d="M147.45,138.69c.44,2.41-2.35,5.23-5.03,5.17-2.97-.07-5.47-2.43-5.32-5.3.16-2.98,2.14-4.93,5.19-5.07,2.44-.11,5.57,2.14,5.15,5.2Z"/>
      <path class="cls-6" d="M74.48,113.16c-5.88-6.29-14.19-4.93-18.53-.38-4.63,4.84-4.5,12.44.2,17.31,4.2,4.35,12.52,5.63,18.25-.29.4,1.04.11,1.8-.74,2.44-4.21,3.17-8.85,3.82-13.68,1.94-4.85-1.88-7.93-5.55-8.62-10.76-1.22-9.18,5.73-16.44,14.99-15.78,2.67.19,5.1,1.18,7.24,2.84.89.69,1.25,1.46.89,2.67Z"/>
      <path class="cls-2" d="M97.88,96.33c3.01.03,5.13,2.19,5.07,5.15-.06,2.93-2.2,4.83-5.4,4.78-3.01-.05-5.05-2.1-5.01-5.06.04-2.91,2.22-4.9,5.33-4.87Z"/>
      <path class="cls-4" d="M171.66,131.18c-.04,2.93-1.48,4.74-4.35,5.46-1.35.34-2.69.63-4.1.25-1.66-.45-2.58-1.36-2.77-2.96-.24-2.03.41-3.41,1.99-4.18,1.61-.79,3.38-.8,5.11-.94,1.07-.09,2.15,0,3.22-.09.74-.06,1.01.16.91.91-.06.51-.01,1.03-.01,1.55Z"/>
      <path class="cls-11" d="M64.94,119.66c.92-.03,1.76.77,1.78,1.7.02.97-.74,1.75-1.7,1.75-.91,0-1.68-.72-1.72-1.62-.05-.95.71-1.8,1.64-1.83Z"/>
    </g>
  </g>
</svg>